<svg width="48" height="48" viewBox="0 0 48 48" fill="none" xmlns="http://www.w3.org/2000/svg">
  <path d="M24 44C35.0457 44 44 35.0457 44 24C44 12.9543 35.0457 4 24 4C12.9543 4 4 12.9543 4 24C4 35.0457 12.9543 44 24 44Z" stroke="#FD7102" stroke-width="2" stroke-linecap="round" stroke-linejoin="round"/>
  <path d="M24 12V24L32 28" stroke="#FD7102" stroke-width="2" stroke-linecap="round" stroke-linejoin="round"/>
  <path d="M36 24C36 23.0807 36 19.9194 36 19C36 13.4772 30.6274 9 24 9C18.6667 9 14.1594 12.0472 12.583 16.25" stroke="#FD7102" stroke-width="2" stroke-linecap="round" stroke-linejoin="round"/>
  <path d="M12 24C12 24.9193 12 28.0806 12 29C12 34.5228 17.3726 39 24 39C29.3333 39 33.8406 35.9528 35.417 31.75" stroke="#FD7102" stroke-width="2" stroke-linecap="round" stroke-linejoin="round"/>
</svg>
