<svg width="48" height="48" viewBox="0 0 48 48" fill="none" xmlns="http://www.w3.org/2000/svg">
  <path d="M24 44C35.0457 44 44 35.0457 44 24C44 12.9543 35.0457 4 24 4C12.9543 4 4 12.9543 4 24C4 26.4013 4.39138 28.7095 5.11418 30.8555C5.5129 32.0053 5.31684 33.2672 4.60289 34.2498L4 35L8 36C9.28749 36.457 10.2505 37.614 10.4691 39L11 42L12.25 41.5C14.1648 40.8553 16.1776 41.1723 17.85 42.3376C19.7494 43.6811 21.8348 44.5 24 44Z" stroke="#FD7102" stroke-width="2" stroke-linecap="round" stroke-linejoin="round"/>
  <path d="M16 23H32" stroke="#FD7102" stroke-width="2" stroke-linecap="round" stroke-linejoin="round"/>
  <path d="M16 16H32" stroke="#FD7102" stroke-width="2" stroke-linecap="round" stroke-linejoin="round"/>
  <path d="M16 30H24" stroke="#FD7102" stroke-width="2" stroke-linecap="round" stroke-linejoin="round"/>
</svg>
